<svg xmlns="http://www.w3.org/2000/svg" viewBox="0 0 32 24.55"><g id="レイヤー_2" data-name="レイヤー 2"><g id="レイヤー_1-2" data-name="レイヤー 1"><path id="book" d="M30.42,24.55a1.58,1.58,0,0,1-1-.38c-.26-.22-6.53-5.4-12.24-.31a1.3,1.3,0,0,1-.22.19,1.47,1.47,0,0,1-.73.29,1.55,1.55,0,0,1-1-.17,1.66,1.66,0,0,1-.44-.35c-5.69-5-11.93.12-12.19.35A1.58,1.58,0,0,1,0,23V4.08a1.59,1.59,0,0,1,.67-1.3c2.9-2,9.62-4.63,15.33-.86,5.71-3.77,12.43-1.17,15.33.86A1.59,1.59,0,0,1,32,4.08V23a1.59,1.59,0,0,1-.92,1.44A1.55,1.55,0,0,1,30.42,24.55ZM9.32,18.46A11,11,0,0,1,16,20.72c4.56-3.38,9.5-2.4,12.83-.69V5C27,3.88,21.57,1.39,17,5.11a1.59,1.59,0,0,1-2,0C10.47,1.42,5,3.9,3.17,5V20A13.61,13.61,0,0,1,9.32,18.46Z"/></g></g></svg>