<svg xmlns="http://www.w3.org/2000/svg" viewBox="0 0 32 18.54"><g id="レイヤー_2" data-name="レイヤー 2"><g id="レイヤー_1-2" data-name="レイヤー 1"><path id="drone" d="M31.66.92a1.84,1.84,0,0,0-1.51-.6A39.42,39.42,0,0,0,26,.81,1.16,1.16,0,0,0,24.88,0a1.18,1.18,0,0,0-1.13.81A39.13,39.13,0,0,0,19.6.32c-1.36,0-1.85.85-1.85,1.58s.49,1.58,1.85,1.58a33.55,33.55,0,0,0,3.68-.42,1,1,0,0,0-.11.43V5.05H8.83V3.49a1,1,0,0,0-.11-.43,33.55,33.55,0,0,0,3.68.42c1.36,0,1.85-.85,1.85-1.58S13.76.32,12.4.32A39.13,39.13,0,0,0,8.25.81,1.19,1.19,0,0,0,6,.81,39,39,0,0,0,1.85.32C.48.32,0,1.17,0,1.9S.48,3.48,1.85,3.48a36.66,36.66,0,0,0,3.71-.42.89.89,0,0,0-.11.43V7.77a2,2,0,0,0,1,1.76,2.7,2.7,0,0,0,1.33.41,5.86,5.86,0,0,0,1.79-.26c.29-.07.61-.16,1.06-.24A3.9,3.9,0,0,1,13,10.59,1.87,1.87,0,0,1,13.78,12a.47.47,0,0,0,.11.34.37.37,0,0,0,.24.12h-.6a1.44,1.44,0,0,0-1.41,1.18L10,12.78a1,1,0,0,0-.87.09,1,1,0,0,0-.41.78v3.71a.91.91,0,0,0,.41.77.93.93,0,0,0,.87.1l2.17-.87a1.44,1.44,0,0,0,1.41,1.18H19a1.45,1.45,0,0,0,1.44-1.44V13.91A1.45,1.45,0,0,0,19,12.47H17.87a.37.37,0,0,0,.24-.12.45.45,0,0,0,.11-.34A1.87,1.87,0,0,1,19,10.59a3.9,3.9,0,0,1,2.45-1.15c.45.08.77.17,1.06.24a5.86,5.86,0,0,0,1.79.26,2.7,2.7,0,0,0,1.33-.41,2,2,0,0,0,.95-1.76V3.49a.89.89,0,0,0-.11-.43,36.66,36.66,0,0,0,3.71.42C31.52,3.48,32,2.63,32,1.9A1.53,1.53,0,0,0,31.66.92Zm-12.12,13V17.1a.59.59,0,0,1-.59.58H13.53a.59.59,0,0,1-.59-.58v-.36a.44.44,0,0,0-.18-.35.43.43,0,0,0-.24-.08.45.45,0,0,0-.16,0l-2.73,1.1a.09.09,0,0,1-.07,0,.08.08,0,0,1,0-.07V13.65a.07.07,0,0,1,0-.07.09.09,0,0,1,.07,0l2.73,1.09a.41.41,0,0,0,.4,0,.44.44,0,0,0,.18-.35v-.36a.6.6,0,0,1,.59-.59H19A.6.6,0,0,1,19.54,13.91ZM.85,1.9c0-.33.17-.73,1-.73a43.46,43.46,0,0,1,4.48.55.41.41,0,0,0,.39-.14.39.39,0,0,0,.08-.4v0A.3.3,0,0,1,7.12.85a.31.31,0,0,1,.33.29.08.08,0,0,1,0,0,.42.42,0,0,0,.09.4.4.4,0,0,0,.38.14,43.21,43.21,0,0,1,4.49-.55c.82,0,1,.4,1,.73s-.17.73-1,.73c-1,0-4.24-.51-5.21-.66H7.05c-1,.15-4.2.66-5.2.66C1,2.63.85,2.23.85,1.9ZM25.7,7.77c0,1.26-1.42,1.31-1.43,1.31a5.17,5.17,0,0,1-1.58-.22c-.29-.08-.63-.17-1.12-.26A4.6,4.6,0,0,0,18.39,10a3,3,0,0,0-1,1.67H14.62a3,3,0,0,0-1-1.67A4.6,4.6,0,0,0,10.43,8.6c-.49.09-.83.18-1.12.26a5.17,5.17,0,0,1-1.58.22S6.3,9,6.3,7.77V3.49a.11.11,0,0,1,.11-.12H7.86A.12.12,0,0,1,8,3.49v2a.42.42,0,0,0,.42.42H23.6A.42.42,0,0,0,24,5.48v-2a.12.12,0,0,1,.12-.12h1.45a.09.09,0,0,1,.08,0s0,0,0,.08Zm4.45-5.14c-1,0-4.24-.51-5.2-.66h-.14c-1,.15-4.2.66-5.21.66-.82,0-1-.4-1-.73s.17-.73,1-.73a43.21,43.21,0,0,1,4.49.55.4.4,0,0,0,.38-.14.42.42,0,0,0,.09-.4.08.08,0,0,1,0,0,.31.31,0,0,1,.33-.29.3.3,0,0,1,.32.29v0a.39.39,0,0,0,.08.4.41.41,0,0,0,.39.14,43.46,43.46,0,0,1,4.48-.55,1.06,1.06,0,0,1,.85.29.75.75,0,0,1,.15.44C31.15,2.23,31,2.63,30.15,2.63Z"/></g></g></svg>